<?xml version="1.0" standalone="no"?><!DOCTYPE svg PUBLIC "-//W3C//DTD SVG 1.1//EN" "http://www.w3.org/Graphics/SVG/1.1/DTD/svg11.dtd"><svg t="1569230000767" class="icon" viewBox="0 0 1024 1024" version="1.1" xmlns="http://www.w3.org/2000/svg" p-id="9244" width="25" height="25" xmlns:xlink="http://www.w3.org/1999/xlink"><defs><style type="text/css"></style></defs><path d="M895.955484 460.757942l-326.173098 0L569.782386 134.597511c0-23.736611-19.243057-42.97886-42.980664-42.97886s-42.980664 19.24225-42.980664 42.97886l0 326.160431-326.174121 0c-23.737607 0-42.980664 19.24225-42.980664 42.97886s19.243057 42.97886 42.980664 42.97886l326.174121 0 0 326.159408c0 23.736611 19.243057 42.97886 42.980664 42.97886s42.980664-19.24225 42.980664-42.97886L569.782386 546.715663l326.173098 0c23.737607 0 42.980664-19.24225 42.980664-42.97886S919.693091 460.757942 895.955484 460.757942z" p-id="9245"></path><path d="M531.954285 144.573723" p-id="9246"></path></svg>