<?xml version="1.0" standalone="no"?><!DOCTYPE svg PUBLIC "-//W3C//DTD SVG 1.1//EN" "http://www.w3.org/Graphics/SVG/1.1/DTD/svg11.dtd"><svg t="1568599387158" class="icon" viewBox="0 0 1024 1024" version="1.1" xmlns="http://www.w3.org/2000/svg" p-id="1509" width="180" height="180" xmlns:xlink="http://www.w3.org/1999/xlink"><defs><style type="text/css"></style></defs><path d="M512 0c281.6 0 512 230.4 512 512s-230.4 512-512 512S0 793.6 0 512 230.4 0 512 0z m0 56.888889C261.688889 56.888889 56.888889 261.688889 56.888889 512s204.8 455.111111 455.111111 455.111111 455.111111-204.8 455.111111-455.111111S762.311111 56.888889 512 56.888889z m-196.266667 523.377778c51.2-28.444444 116.622222-39.822222 196.266667-39.822223 79.644444 0 142.222222 14.222222 193.422222 39.822223 36.977778 19.911111 59.733333 59.733333 59.733334 99.555555V768c0 17.066667-11.377778 28.444444-28.444445 28.444444H284.444444c-17.066667 0-28.444444-11.377778-28.444444-28.444444v-85.333333c0-42.666667 22.755556-82.488889 59.733333-102.4z m17.066667 59.733333c-11.377778 11.377778-19.911111 25.6-19.911111 42.666667v28.444444c0 17.066667 11.377778 28.444444 28.444444 28.444445h341.333334c17.066667 0 28.444444-11.377778 28.444444-28.444445v-28.444444c0-17.066667-8.533333-31.288889-19.911111-42.666667-34.133333-28.444444-93.866667-42.666667-179.2-42.666667s-145.066667 14.222222-179.2 42.666667zM512 227.555556c79.644444 0 142.222222 62.577778 142.222222 142.222222s-62.577778 142.222222-142.222222 142.222222-142.222222-62.577778-142.222222-142.222222 62.577778-142.222222 142.222222-142.222222z m0 56.888888c-48.355556 0-85.333333 36.977778-85.333333 85.333334s36.977778 85.333333 85.333333 85.333333 85.333333-36.977778 85.333333-85.333333-36.977778-85.333333-85.333333-85.333334z" p-id="1510" fill="#ffffff"></path></svg>